<?xml version="1.0" encoding="UTF-8" standalone="no"?>
<!-- Created with Inkscape (http://www.inkscape.org/) -->

<svg
   width="210mm"
   height="297mm"
   viewBox="0 0 210 297"
   version="1.1"
   id="svg1"
   inkscape:export-filename="Micro_Favicon_IR.png"
   inkscape:export-xdpi="3.870476"
   inkscape:export-ydpi="3.870476"
   inkscape:version="1.4.3 (0d15f75, 2025-12-25)"
   sodipodi:docname="ir.svg"
   xmlns:inkscape="http://www.inkscape.org/namespaces/inkscape"
   xmlns:sodipodi="http://sodipodi.sourceforge.net/DTD/sodipodi-0.dtd"
   xmlns="http://www.w3.org/2000/svg"
   xmlns:svg="http://www.w3.org/2000/svg">
  <sodipodi:namedview
     id="namedview1"
     pagecolor="#ffffff"
     bordercolor="#000000"
     borderopacity="0.25"
     inkscape:showpageshadow="2"
     inkscape:pageopacity="0.0"
     inkscape:pagecheckerboard="0"
     inkscape:deskcolor="#d1d1d1"
     inkscape:document-units="mm"
     inkscape:zoom="1.0396254"
     inkscape:cx="396.77752"
     inkscape:cy="561.25984"
     inkscape:window-width="3440"
     inkscape:window-height="1369"
     inkscape:window-x="-8"
     inkscape:window-y="-8"
     inkscape:window-maximized="1"
     inkscape:current-layer="layer1" />
  <defs
     id="defs1" />
  <g
     inkscape:label="Capa 1"
     inkscape:groupmode="layer"
     id="layer1">
    <path
       id="path63"
       style="font-size:111.325px;font-family:'Arial Black';-inkscape-font-specification:'Arial Black, ';display:inline;fill:#00e676;fill-opacity:1;stroke-width:2.45456"
       d="m 97.574527,114.9515 v 21.08398 h 6.543793 v -8.5571 h 0.57516 c 0.59446,0 1.12646,0.16287 1.59628,0.48886 0.34517,0.24929 0.73821,0.79106 1.17926,1.62522 l 3.48092,6.44302 h 7.36338 l -3.14968,-6.11229 c -0.15341,-0.30682 -0.46013,-0.74326 -0.92036,-1.30896 -0.45064,-0.5657 -0.79589,-0.93484 -1.03559,-1.10743 -0.35476,-0.25887 -0.92042,-0.51781 -1.69706,-0.77669 0.9684,-0.22053 1.73057,-0.49848 2.28668,-0.83406 0.87252,-0.52735 1.55814,-1.21297 2.05673,-2.05672 0.49858,-0.85334 0.74775,-1.86469 0.74775,-3.03444 0,-1.34234 -0.32572,-2.47853 -0.97771,-3.40858 -0.652,-0.93964 -1.51024,-1.58184 -2.57452,-1.92701 -1.06429,-0.34518 -2.60327,-0.5178 -4.61678,-0.5178 z m 6.543793,4.2571 h 2.86184 c 1.18893,0 1.99939,0.18187 2.43086,0.54622 0.43146,0.36435 0.64699,0.88711 0.64699,1.56786 0,0.46024 -0.13897,0.86739 -0.41703,1.22215 -0.26847,0.35477 -0.6186,0.57569 -1.05007,0.66198 -0.85334,0.19176 -1.42824,0.28732 -1.72547,0.28732 h -2.74712 z" />
    <path
       style="font-size:111.325px;font-family:'Arial Black';-inkscape-font-specification:'Arial Black, ';display:inline;fill:#e1e4e8;stroke-width:2.45456"
       d="m 87.829907,114.95129 h 6.52956 v 21.0843 h -6.52956 z"
       id="text57" />
  </g>
</svg>
